<?xml version="1.0" encoding="utf-8"?>
<!-- Generator: Adobe Illustrator 25.0.0, SVG Export Plug-In . SVG Version: 6.00 Build 0)  -->
<svg version="1.1" id="レイヤー_1" xmlns="http://www.w3.org/2000/svg" xmlns:xlink="http://www.w3.org/1999/xlink" x="0px"
	 y="0px" viewBox="0 0 374.3 66.6" style="enable-background:new 0 0 374.3 66.6;" xml:space="preserve">
<style type="text/css">
	.st0{fill:#FFFFFF;}
</style>
<g>
	<path class="st0" d="M15.4,41.6C13.5,51.9,8.9,58.4,5.3,62c-0.6,0.6-1.3,1.1-2,1.1c-1.7,0-3.2-1.4-3.2-2.9c0-0.4,0.2-0.9,0.6-1.4
		c4.5-4.7,7.3-9.9,9.1-18.4c0.2-1.1,1.3-1.9,2.6-1.9c1.6,0,3.1,0.9,3.1,2.5C15.5,41.3,15.4,41.5,15.4,41.6z M5.5,29.7
		c-1.3,0-3.5-0.9-3.5-2.5c0-1.2,0.9-3.5,2.4-3.5c1.3,0,3.5,0.9,3.5,2.4C8.1,27.4,7.2,29.7,5.5,29.7z M7.5,12.9
		c-1.3,0-3.4-1.1-3.4-2.4s1.2-3.6,2.5-3.6s3.5,1.2,3.5,2.7C10.1,10.8,9.1,12.9,7.5,12.9z M55.9,65.8h-3.4c-1,0-1.9-0.9-1.9-2.4
		c0-1.4,0.9-2.4,1.8-2.4h1.8c1.5,0,2.7-1,2.7-2.9v-6.5H44.4v12.5c0,1.2-1.2,2.4-2.9,2.4s-3-1.2-3-2.4V51.7H26.1v5.7
		c0,1.1-1.2,2.4-3,2.4s-2.9-1.3-2.9-2.4V23.9c0-3.1,2.4-5.5,5.4-5.5h12.9v-7.3h-18c-1.2,0-2.4-1.2-2.4-2.7c0-1.7,1.3-2.9,2.4-2.9h18
		v-3c0-1.2,1.2-2.4,3-2.4c1.7,0,2.9,1.3,2.9,2.4v3h9.4c1.2,0,2.4,1.2,2.4,2.9c0,1.6-1.2,2.7-2.4,2.7h-9.4v7.3h13
		c3,0,5.4,2.4,5.4,5.5v34.7C62.8,62.9,60.2,65.8,55.9,65.8z M38.6,23.6H27.9c-1,0-1.7,0.8-1.7,1.9v6.9h12.5L38.6,23.6L38.6,23.6z
		 M38.6,37.7H26.1v8.7h12.5V37.7z M56.9,25.5c0-1.1-0.6-1.9-1.7-1.9H44.4v8.8h12.5V25.5z M56.9,37.7H44.4v8.7h12.5V37.7z M58.7,7.6
		c-1.5,0-2.2-2.2-2.2-3.5c0-1.4,2.2-2.2,3.5-2.2c1.5,0,2.1,2.2,2.1,3.5C62,6.8,59.9,7.6,58.7,7.6z"/>
	<path class="st0" d="M138.7,20.5c-3.7,12-10.5,21.4-20.6,30.9l12.4,6.8c0.9,0.4,1.4,1.4,1.4,2.5c0,2.1-1.6,3.6-3,3.6
		c-0.4,0-0.7-0.1-1-0.3L97.1,47c-0.8-0.4-1.4-1.4-1.4-2.4c0-1.9,1.6-3.5,3.1-3.5c0.3,0,0.6,0.1,0.9,0.2l12.9,7.1
		C122,40.3,129,29.8,132,19.7c0.1-0.1,0.1-0.3,0.1-0.4c0-0.7-0.5-1.2-1.4-1.2H99.2c-3.9,6.1-9.1,12.2-15.8,17.3
		c-0.4,0.3-0.9,0.4-1.3,0.4c-1.7,0-3.5-1.4-3.5-3.5c0-0.8,0.4-1.7,1.1-2.2c8.7-6,16.6-17.4,18.9-26.9C99,1.8,100.3,1,101.9,1
		c2.1,0,3.5,1.4,3.5,2.9c0,1.4-2.2,6.4-2.8,7.8h32c3.2,0,5,1.9,5,4.8C139.7,17.7,139.4,19.1,138.7,20.5z"/>
	<path class="st0" d="M160.6,59.5c-0.5,0.4-1.2,0.7-1.9,0.7c-1.7,0-3.4-1.2-3.4-3.1c0-0.7,0.4-1.5,0.9-2.1
		c8.5-7.5,14.1-21.3,14.1-31.7c0-0.9-0.9-1.6-1.8-1.6h-11.7c-1.3,0-2.8-1.4-2.8-3.3s1.5-3.2,2.8-3.2h14.7c3.1,0,5.2,1.8,5.2,5.8
		C176.7,27.9,174.2,47.1,160.6,59.5z M181.1,65.8h-6.8c-1.3,0-2.6-1.3-2.6-3.2s1.3-3.1,2.4-3.1h5.8c2.2,0,3.9-1.6,3.9-3.9V2.7
		c0-1.3,1.3-2.7,3.3-2.7c1.9,0,3.2,1.4,3.2,2.7v53.5C190.3,62.9,186.7,65.8,181.1,65.8z M215.6,61.2c-0.7,0-1.5-0.3-2-0.8
		c-10.2-10-17.4-28.4-17.4-47.7v-0.1c0-1.2,1.3-2.5,3-2.5c1.9,0,3.1,1.3,3.2,2.5c0.2,3.8,0.6,7.4,1.2,10.9l7.6-7.4
		c0.4-0.4,0.8-0.5,1.3-0.5c1.4,0,3.1,1.2,3.1,3c0,0.8-0.2,1.4-0.6,1.9L205,30c2.9,11.7,7.9,20.9,13.4,25.7c0.4,0.4,0.8,1.2,0.8,2
		C219,60.1,217.2,61.2,215.6,61.2z"/>
	<path class="st0" d="M256.5,11.7h-13v10.5h8.4c3,0,5.4,2.4,5.4,5.4v29c0,5.6-3.5,9.2-8.9,9.2h-1.7c-1.2,0-2-1.2-2-2.9
		s0.9-2.8,1.9-2.8h0.4c3,0,4.5-1.7,4.5-4.5v-26c0-1-0.7-1.7-1.7-1.7h-6.4v5c0,9.2-1.4,15.1-4.3,20c-0.4,0.6-1.2,1.2-2.3,1.2
		c-1.8,0-3-1.4-3-2.7c0-0.4,0.1-0.9,0.4-1.2c2.3-4,3.6-8.9,3.6-17.4V11.7h-4.2c-1.2,0-2.5-1.2-2.5-3s1.4-3,2.5-3h8.6V2.6
		c0-1.2,1.3-2.5,3.1-2.5c1.9,0,3.1,1.3,3.1,2.5v3.2h8c1.2,0,2.6,1.2,2.6,3S257.8,11.7,256.5,11.7z M286.8,11.4h-19.4
		c-0.7,3.3-1.7,6-2.8,8.7c-0.4,1-1.7,1.5-3.3,1.5c-1.5,0-2.3-1.4-2.3-2.5c0-0.2,0.1-0.4,0.1-0.6c1.9-4.5,3-9.4,3.7-16
		c0.1-1.2,1.3-2.4,3-2.4s2.9,1.4,2.9,2.4l-0.4,3.2h18.4c1.2,0,2.4,1.2,2.4,2.8C289.2,10.3,287.9,11.4,286.8,11.4z M295.4,44.5H284
		c1.8,5.8,6,11.6,10.9,14.3c0.9,0.4,1.3,1.4,1.3,2.2c0,1.9-1.8,3.1-3.2,3.1c-0.4,0-0.6-0.1-0.9-0.2c-5.3-3.1-9.3-8.3-11.7-13.9
		c-2.7,6-7.6,11.2-13.7,14.1c-0.3,0.1-0.6,0.2-0.9,0.2c-1.4,0-3-1.2-3-3.4c0-0.9,0.7-1.9,1.4-2.2c5.6-2.4,10-8.1,11.8-14.3h-13
		c-1.2,0-2.4-1.2-2.4-2.8c0-1.7,1.2-2.9,2.4-2.9h14c0-0.1,0.1-0.3,0.1-0.5V26.4h-7.4c-0.8,2.2-1.7,4.2-2.7,5.9
		c-0.4,0.7-1.4,1.2-2.6,1.2c-1.4,0-2.3-1.4-2.3-2.5c0-0.2,0-0.4,0.1-0.6c2.3-4.2,3.8-8.6,4.3-12.3c0.1-1.1,1.2-2.2,2.9-2.2
		c1.5,0,2.5,1.2,2.5,2.2c0,0.9-0.4,2-0.6,2.9h16.2c1.2,0,2.4,1.2,2.4,2.7c0,1.7-1.2,2.8-2.4,2.8H283v12c0,0.1-0.1,0.3-0.1,0.4h12.5
		c1.2,0,2.4,1.2,2.4,2.9C297.8,43.3,296.6,44.5,295.4,44.5z"/>
	<path class="st0" d="M336.3,66.3c-1.3,0-2.2-0.9-2.5-1.8l-0.7-2.4c-3.5,1.7-9.4,2.8-15,2.8h-7.2c-1.2,0-2.4-1.1-2.4-2.8
		s1.3-2.8,2.5-2.8h0.1v-34c0-3,2.4-5.4,5.4-5.4h5v-4.4c0-1.2,1.2-2.4,2.8-2.4s2.7,1.2,2.7,2.4v4.4h5.1c3,0,5.4,2.4,5.4,5.4v16.6
		c0,3-2.4,5.4-5.4,5.4H317v12h1.8c4.8,0,9.3-0.7,12.7-2l-1.2-4c-0.1-0.1-0.1-0.4-0.1-0.5c0-1.2,1.2-2.4,2.7-2.4s2.4,0.9,2.7,1.7
		l3.4,11.2c0.1,0.2,0.1,0.4,0.1,0.6C339.1,65.2,337.9,66.3,336.3,66.3z M336.7,15.7c-4.1,0-9.2-5.4-11.6-8.3
		c-0.2-0.3-0.5-0.4-0.7-0.4c-0.3,0-0.5,0.1-0.7,0.4c-2.1,2.7-8.1,8.4-11.6,8.4c-1.7,0-2.9-1.7-2.9-3.4c0-1.2,0.5-2.2,1.6-2.6
		c3.7-1.4,6.8-3.9,9-6.4c1-1.2,2.5-2.3,4.6-2.3c2,0,3.5,1.2,4.5,2.3c2.2,2.4,5.4,5.1,8.9,6.4c1.1,0.4,1.7,1.4,1.7,2.4
		C339.6,14.5,338.3,15.7,336.7,15.7z M331.7,26.3c0-1-0.8-1.8-1.8-1.8h-11.1c-1,0-1.7,0.8-1.7,1.8v5.1h14.6V26.3z M331.7,35.8h-14.6
		v6.8h12.8c1,0,1.8-0.7,1.8-1.7L331.7,35.8L331.7,35.8z M371.4,17.7c-1.7,0-3-0.9-3-2.1v-4.5c0-1-0.7-1.7-1.7-1.7H349
		c-1,0-1.8,0.7-1.8,1.7v4.5c0,1.2-1.2,2.2-3,2.2c-1.7,0-3-1.3-3-2.5V9.4c0-3,2.4-5.4,5.4-5.4h8V2.4c0-1.2,1.3-2.4,3.2-2.4
		c1.9,0,3.2,1.2,3.2,2.4V4h7.9c3,0,5.4,2.4,5.4,5.4v5.9C374.3,16.4,373.1,17.7,371.4,17.7z M366,36.9h-15.8V44h13
		c3,0,5.4,2.4,5.4,5.4v10.1c0,3-2.4,5.3-5.4,5.3h-13.5c-3,0-5.4-2.4-5.4-5.3V23c0-3,2.4-5.4,5.4-5.4H366c3,0,5.4,2.4,5.4,5.4v8.4
		C371.4,34.5,369,36.9,366,36.9z M365.4,24.6c0-1-0.7-1.7-1.7-1.7h-11.8c-1,0-1.7,0.7-1.7,1.7v7h13.5c1,0,1.7-0.8,1.7-1.8V24.6z
		 M362.5,50.8c0-0.9-0.7-1.7-1.7-1.7h-10.6v8.7c0,1,0.7,1.8,1.7,1.8h8.9c1,0,1.7-0.8,1.7-1.8V50.8z"/>
</g>
</svg>
